<svg width="93" height="32" viewBox="0 0 93 32" fill="none" xmlns="http://www.w3.org/2000/svg">
<path d="M17.376 10.8V15.424H11.584V10.8H9.504V22H11.584V17.2H17.376V22H19.456V10.8H17.376ZM25.5291 13.36C24.1531 13.36 22.8251 13.712 21.9131 14.416L22.6971 15.872C23.3371 15.344 24.3291 15.024 25.2891 15.024C26.7131 15.024 27.4171 15.712 27.4171 16.88V17.008H25.2091C22.6171 17.008 21.6571 18.128 21.6571 19.552C21.6571 21.04 22.8891 22.112 24.8411 22.112C26.1211 22.112 27.0491 21.696 27.5291 20.96V22H29.4171V16.992C29.4171 14.528 27.9931 13.36 25.5291 13.36ZM25.2571 20.656C24.2331 20.656 23.6251 20.192 23.6251 19.472C23.6251 18.848 23.9931 18.336 25.3531 18.336H27.4171V19.328C27.0811 20.208 26.2331 20.656 25.2571 20.656ZM42.7679 13.36C41.4079 13.36 40.2559 13.904 39.5679 14.784C38.9759 13.824 37.9359 13.36 36.6879 13.36C35.5199 13.36 34.5279 13.776 33.8879 14.544V13.456H31.9839V22H33.9839V17.664C33.9839 15.968 34.8799 15.104 36.2079 15.104C37.4239 15.104 38.1279 15.84 38.1279 17.36V22H40.1279V17.664C40.1279 15.968 41.0399 15.104 42.3519 15.104C43.5679 15.104 44.2719 15.84 44.2719 17.36V22H46.2719V17.104C46.2719 14.528 44.8319 13.36 42.7679 13.36ZM48.8276 22H50.8276V13.456H48.8276V22ZM56.0926 22.112C58.4926 22.112 59.9646 21.072 59.9646 19.472C59.9646 16.128 54.6846 17.664 54.6846 15.936C54.6846 15.376 55.2606 14.976 56.4766 14.976C57.2926 14.976 58.1086 15.136 58.9246 15.616L59.6926 14.096C58.9246 13.632 57.6286 13.36 56.4926 13.36C54.1886 13.36 52.7326 14.416 52.7326 16.032C52.7326 19.44 58.0126 17.904 58.0126 19.536C58.0126 20.128 57.4846 20.48 56.2206 20.48C55.1486 20.48 53.9966 20.128 53.2446 19.632L52.4766 21.152C53.2446 21.696 54.6686 22.112 56.0926 22.112ZM61.687 22H63.687V13.456H61.687V22Z" fill="#00A5B4"/>
<path d="M85.0234 10.9414L90.0818 15.9997L85.0234 21.0581" stroke="#00A5B4" stroke-width="1.5" stroke-miterlimit="10" stroke-linecap="round" stroke-linejoin="round"/>
<path d="M75.9141 16H89.9391" stroke="#00A5B4" stroke-width="1.5" stroke-miterlimit="10" stroke-linecap="round" stroke-linejoin="round"/>
</svg>
