<svg width="11" height="15" viewBox="0 0 11 15" fill="none" xmlns="http://www.w3.org/2000/svg">
<path d="M6.45727 1.37946V2.48349C8.79747 2.9694 10.581 5.48653 10.581 8.51665V13.6146C10.581 14.1786 10.2124 14.6342 9.75624 14.6342C9.30005 14.6342 8.9315 14.1786 8.9315 13.6146V8.51665C8.9315 6.61765 7.87995 5.01815 6.45727 4.5657L6.45727 13.6146C6.45727 14.1786 6.08872 14.6342 5.63253 14.6342C5.17635 14.6342 4.80779 14.1786 4.80779 13.6146L4.80779 4.5657C3.38511 5.01815 2.33356 6.61765 2.33356 8.51665L2.33356 13.6146C2.33356 14.1786 1.96424 14.6342 1.50882 14.6342C1.05341 14.6342 0.684082 14.1786 0.684082 13.6146L0.684082 8.51665C0.684082 5.48653 2.46733 2.9694 4.80779 2.48349V1.37946C4.80779 0.816452 5.17635 0.359863 5.63253 0.359863C6.08872 0.359863 6.45727 0.816452 6.45727 1.37946Z" fill="#424242"/>
</svg>
